<svg width="59" height="9" viewBox="0 0 59 9" fill="none" xmlns="http://www.w3.org/2000/svg">
<path d="M55.9367 8.25C55.3464 8.25 54.8276 8.12167 54.3802 7.865C53.9366 7.60467 53.5901 7.2435 53.3407 6.7815C53.0951 6.31583 52.9722 5.77683 52.9722 5.1645C52.9722 4.5155 53.0932 3.95267 53.3352 3.476C53.5809 2.99933 53.9219 2.63083 54.3582 2.3705C54.7946 2.11017 55.3024 1.98 55.8817 1.98C56.4867 1.98 57.0019 2.12117 57.4272 2.4035C57.8526 2.68217 58.1697 3.08 58.3787 3.597C58.5914 4.114 58.6757 4.72817 58.6317 5.4395H57.4822V5.0215C57.4749 4.33217 57.3429 3.8225 57.0862 3.4925C56.8332 3.1625 56.4464 2.9975 55.9257 2.9975C55.3501 2.9975 54.9174 3.179 54.6277 3.542C54.3381 3.905 54.1932 4.42933 54.1932 5.115C54.1932 5.76767 54.3381 6.27367 54.6277 6.633C54.9174 6.98867 55.3354 7.1665 55.8817 7.1665C56.2411 7.1665 56.5509 7.08583 56.8112 6.9245C57.0752 6.7595 57.2806 6.52483 57.4272 6.2205L58.5547 6.578C58.3237 7.10967 57.9736 7.52217 57.5042 7.8155C57.0349 8.10517 56.5124 8.25 55.9367 8.25ZM53.8192 5.4395V4.543H58.0597V5.4395H53.8192Z" fill="#191A1D"/>
<path d="M49.9903 8.085V1.936C49.9903 1.78567 49.9958 1.62617 50.0068 1.4575C50.0178 1.28517 50.0489 1.1165 50.1003 0.9515C50.1553 0.782833 50.2451 0.628833 50.3698 0.4895C50.5201 0.3245 50.6851 0.207166 50.8648 0.1375C51.0444 0.0678329 51.2223 0.0274994 51.3983 0.0164993C51.5779 0.00549964 51.7429 0 51.8933 0H52.6413V0.946H51.9483C51.6769 0.946 51.4734 1.01383 51.3378 1.1495C51.2058 1.2815 51.1398 1.47033 51.1398 1.716V8.085H49.9903ZM49.0058 3.069V2.145H52.6413V3.069H49.0058Z" fill="#191A1D"/>
<path d="M46.6447 1.1715V0.0549994H47.7942V1.1715H46.6447ZM46.6447 8.085V2.145H47.7942V8.085H46.6447Z" fill="#191A1D"/>
<path d="M43.7335 8.085V0H44.883V8.085H43.7335Z" fill="#191A1D"/>
<path d="M37.8495 8.085L37.855 0.165H39.021V5.005L41.353 2.145H42.816L40.352 5.115L43.069 8.085H41.507L39.021 5.225V8.085H37.8495Z" fill="#191A1D"/>
<path d="M35.2564 8.085V5.1645C35.2564 4.9335 35.2362 4.697 35.1959 4.455C35.1592 4.20933 35.0859 3.982 34.9759 3.773C34.8695 3.564 34.7174 3.39533 34.5194 3.267C34.325 3.13867 34.0702 3.0745 33.7549 3.0745C33.5495 3.0745 33.3552 3.10933 33.1719 3.179C32.9885 3.245 32.8272 3.35317 32.6879 3.5035C32.5522 3.65383 32.444 3.85183 32.3634 4.0975C32.2864 4.34317 32.2479 4.642 32.2479 4.994L31.5329 4.7245C31.5329 4.1855 31.6337 3.71067 31.8354 3.3C32.037 2.88567 32.3267 2.563 32.7044 2.332C33.082 2.101 33.5385 1.9855 34.0739 1.9855C34.4845 1.9855 34.8292 2.0515 35.1079 2.1835C35.3865 2.3155 35.612 2.48967 35.7844 2.706C35.9604 2.91867 36.0942 3.1515 36.1859 3.4045C36.2775 3.6575 36.3399 3.905 36.3729 4.147C36.4059 4.389 36.4224 4.60167 36.4224 4.785V8.085H35.2564ZM31.0819 8.085V2.145H32.1104V3.861H32.2479V8.085H31.0819Z" fill="#191A1D"/>
<path d="M28.2863 1.1715V0.0549994H29.4358V1.1715H28.2863ZM28.2863 8.085V2.145H29.4358V8.085H28.2863Z" fill="#191A1D"/>
<path d="M25.5777 8.085V5.1645C25.5777 4.9335 25.5575 4.697 25.5172 4.455C25.4805 4.20933 25.4072 3.982 25.2972 3.773C25.1908 3.564 25.0387 3.39533 24.8407 3.267C24.6463 3.13867 24.3915 3.0745 24.0762 3.0745C23.8708 3.0745 23.6765 3.10933 23.4932 3.179C23.3098 3.245 23.1485 3.35317 23.0092 3.5035C22.8735 3.65383 22.7653 3.85183 22.6847 4.0975C22.6077 4.34317 22.5692 4.642 22.5692 4.994L21.8542 4.7245C21.8542 4.1855 21.955 3.71067 22.1567 3.3C22.3583 2.88567 22.648 2.563 23.0257 2.332C23.4033 2.101 23.8598 1.9855 24.3952 1.9855C24.8058 1.9855 25.1505 2.0515 25.4292 2.1835C25.7078 2.3155 25.9333 2.48967 26.1057 2.706C26.2817 2.91867 26.4155 3.1515 26.5072 3.4045C26.5988 3.6575 26.6612 3.905 26.6942 4.147C26.7272 4.389 26.7437 4.60167 26.7437 4.785V8.085H25.5777ZM21.4032 8.085V0.165H22.4317V4.4385H22.5692V8.085H21.4032Z" fill="#191A1D"/>
<path d="M16.7445 8.085V1.2485H14.11V0.165H20.5285V1.2485H17.894V8.085H16.7445Z" fill="#191A1D"/>
<path d="M0 8.085H0.743786C1.16471 8.085 1.37517 8.085 1.56551 8.04773C2.08184 7.94663 2.53754 7.64615 2.83386 7.21139C2.94309 7.05112 3.026 6.85767 3.19181 6.47078L3.9116 4.79127C3.97 4.65501 4.05386 4.53114 4.15869 4.42631C4.37723 4.20777 4.67363 4.085 4.98269 4.085H10V0.085H7.25621C6.83529 0.085 6.62483 0.085 6.43449 0.12227C5.91816 0.223369 5.46246 0.523853 5.16614 0.958609C5.05691 1.11888 4.974 1.31233 4.80819 1.69922L4.0884 3.37873C4.03 3.51499 3.94614 3.63886 3.84131 3.74369C3.62277 3.96223 3.32637 4.085 3.01731 4.085H0V8.085Z" fill="#1640F8"/>
<path d="M4.38234 6.04883C4.53343 5.70017 4.60897 5.52584 4.72995 5.39791C4.83687 5.28484 4.96871 5.19829 5.11497 5.14514C5.28045 5.085 5.47044 5.085 5.85043 5.085H8V8.085H3.5L4.38234 6.04883Z" fill="#1640F8"/>
</svg>
